# xmcd
#
# Track frame offsets: 
#        150
#        12100
#        24670
#        36765
#        49115
#        61360
#        72902
#        85327
#        94960
#        107120
#        119107
#        130540
#
# Disc length: 1874 seconds
#
# Revision: 1
# Processed by: cddbd v1.5.1PL0 Copyright (c) Steve Scherf et al.
# Submitted via: ExactAudioCopy v0.95a5
#
DISCID=a207500c
DTITLE=Lloyd Green - Steel Guitar Rag
DYEAR=1992
DGENRE=Country
TTITLE0=I Can See Clearly Now
TTITLE1=Killing Me Softly With His Song
TTITLE2=Jambalaya
TTITLE3=Morning Has Broken
TTITLE4=Dixie Drive-In
TTITLE5=Atlantis
TTITLE6=Here Comes The Sun
TTITLE7=Sleep Walk
TTITLE8=Danny's Song
TTITLE9=Peace
TTITLE10=Steel Guitar Rag
TTITLE11=Summer Clouds
EXTD=
EXTT0=
EXTT1=
EXTT2=
EXTT3=
EXTT4=
EXTT5=
EXTT6=
EXTT7=
EXTT8=
EXTT9=
EXTT10=
EXTT11=
PLAYORDER=
